# AST/ASF file generated using VICON BodyLanguage
# -----------------------------------------------
:version 1.10
:name VICON
:units
  mass 1.0
  length 0.45
  angle deg
:documentation
   .ast/.asf automatically generated from VICON data using
   VICON BodyBuilder and BodyLanguage model FoxedUp or BRILLIANT.MOD
:root
   order TX TY TZ RX RY RZ
   axis XYZ
   position 0 0 0  
   orientation 0 0 0 
:bonedata
  begin
     id 1 
     name lhipjoint
     direction 0.627457 -0.725269 0.283342 
     length 2.53237 
     axis 0 0 0  XYZ
  end
  begin
     id 2 
     name lfemur
     direction 0.34202 -0.939693 0  
     length 7.32496  
     axis 0 0 20  XYZ
    dof rx ry rz
    limits (-160.0 20.0)
           (-70.0 70.0)
           (-60.0 70.0)
  end
  begin
     id 3 
     name ltibia
     direction 0.34202 -0.939693 0   
     length 7.69674   
     axis 0 0 20   XYZ
    dof rx
    limits (-10.0 170.0)
  end
  begin
     id 4 
     name lfoot
     direction 0.127289 -0.349722 0.928166   
     length 1.8612   
     axis -90 7.62852e-016 20   XYZ
    dof rx rz
    limits (-45.0 90.0)
           (-70.0 20.0)
  end
  begin
     id 5 
     name ltoes
     direction 1.53561e-011 -4.21864e-011 1   
     length 0.925608   
     axis -90 7.62852e-016 20   XYZ
    dof rx
    limits (-90.0 20.0)
  end
  begin
     id 6 
     name rhipjoint
     direction -0.609094 -0.738725 0.288599   
     length 2.48624  
     axis 0 0 0  XYZ 
  end
  begin
     id 7 
     name rfemur
     direction -0.34202 -0.939693 0   
     length 7.44259   
     axis 0 0 -20   XYZ
    dof rx ry rz
    limits (-160.0 20.0)
           (-70.0 70.0)
           (-70.0 60.0)
  end
  begin
     id 8 
     name rtibia
     direction -0.34202 -0.939693 0   
     length 7.7781   
     axis 0 0 -20   XYZ
    dof rx
    limits (-10.0 170.0)
 end
 begin
     id 9 
     name rfoot
     direction -0.107015 -0.294021 0.949789   
     length 2.14741  
     axis -90 -7.62852e-016 -20   XYZ
    dof rx rz
    limits (-45.0 90.0)
           (-20.0 70.0)
  end
  begin
     id 10 
     name rtoes
     direction -1.53497e-011 -4.21924e-011 1   
     length 1.0706   
     axis -90 -7.62852e-016 -20   XYZ
    dof rx
    limits (-90.0 20.0)
  end
  begin
     id 11 
     name lowerback
     direction -0.0142066 0.998112 -0.0597545   
     length 1.86627   
     axis 0 0 0   XYZ
    dof rx ry rz
    limits (-20.0 45.0)
           (-30.0 30.0)
           (-30.0 30.0)
  end
  begin
     id 12 
     name upperback
     direction 0.00547294 0.999744 0.0219437   
     length 1.86272   
     axis 0 0 0   XYZ
    dof rx ry rz
    limits (-20.0 45.0)
           (-30.0 30.0)
           (-30.0 30.0)
  end
  begin
     id 13 
     name thorax
     direction 0.0116162 0.998704 0.0495538   
     length 1.8703   
     axis 0 0 0   XYZ
    dof rx ry rz
    limits (-20.0 45.0)
           (-30.0 30.0)
           (-30.0 30.0)
  end
  begin
     id 14 
     name lowerneck
     direction -0.0106574 0.998739 0.0490586   
     length 1.8074   
     axis 0 0 0   XYZ
    dof rx ry rz
    limits (-20.0 45.0)
           (-30.0 30.0)
           (-30.0 30.0)
  end
  begin
     id 15 
     name upperneck
     direction 0.030527 0.976587 -0.212944   
     length 1.80681   
     axis 0 0 0   XYZ
    dof rx ry rz
    limits (-20.0 45.0)
           (-30.0 30.0)
           (-30.0 30.0)
  end
  begin
     id 16
     name head
     direction 0.00869225 0.997035 -0.0764531  
     length 1.8313  
     axis 0 0 0   XYZ
    dof rx ry rz
    limits (-20.0 45.0)
           (-30.0 30.0)
           (-30.0 30.0)
  end
  begin
     id 17 
     name lclavicle
     direction 0.915958 0.399447 0.0382386  
     length 3.78965  
     axis 0 0 0   XYZ
    dof ry rz
    limits (-20.0 10.0)
           (0.0 20.0)
  end
  begin
     id 18 
     name lhumerus
     direction 1 -4.48967e-011 3.19303e-027   
     length 4.78095   
     axis -180 -30 -90   XYZ
    dof rx ry rz
    limits (-60.0 90.0)
           (-90.0 90.0)
           (-90.0 90.0)
  end
  begin
     id 19
     name lradius
     direction 1 -4.48967e-011 -3.77974e-027   
     length 3.58615   
     axis -180 -30 -90   XYZ
    dof rx
    limits (-10.0 170.0)
  end
  begin
     id 20
     name lwrist
     direction 1 -4.48927e-011 1.2807e-027   
     length 1.79307   
     axis 1.91374e-015 90 90   XYZ
    dof ry
    limits (-180.0 0.0)
 end
  begin
     id 21 
     name lhand
     direction 1 -4.49036e-011 2.5614e-027   
     length 0.659812   
     axis -1.63439e-015 90 90   XYZ
    dof rx rz
    limits (-90.0 90.0)
           (-45.0 45.0)
  end
  begin
     id 22 
     name lfingers
     direction 1 -4.49052e-011 5.1228e-027   
     length 0.531957   
     axis -3.26879e-015 90 90   XYZ
    dof rx
    limits (0.0 90.0)
  end
  begin
     id 23
     name lthumb
     direction 0.707107 -6.35012e-011 0.707107   
     length 0.763787   
     axis -90 45 2.85299e-015   XYZ
    dof rx rz
    limits (-45.0 45.0)
           (-45.0 45.0)
  end
  begin
     id 24 
     name rclavicle
     direction -0.895351 0.435135 0.0948887   
     length 3.70497  
     axis 0 0 0   XYZ 
    dof ry rz
    limits (-10.0 20.0)
           (-20.0 0.0)
  end
  begin
     id 25 
     name rhumerus
     direction -1 -4.48971e-011 2.38946e-027  
     length 4.48913   
     axis -180 30 90   XYZ
    dof rx ry rz
    limits (-90.0 60.0)
           (-90.0 90.0)
           (-90.0 90.0)
  end
  begin
     id 26 
     name rradius
     direction -1 -4.4895e-011 4.38668e-027   
     length 3.7051   
     axis -180 30 90   XYZ
    dof rx
    limits (-10.0 170.0)
  end
  begin
     id 27 
     name rwrist
     direction -1 -4.49007e-011 1.2807e-027   
     length 1.85255   
     axis 1.91374e-015 -90 -90   XYZ
    dof ry
    limits (-180.0 0.0)
  end
  begin
     id 28
     name rhand
     direction -1 -4.48851e-011 2.5614e-027   
     length 0.449136   
     axis -1.63439e-015 -90 -90   XYZ
    dof rx rz
    limits (-90.0 90.0)
           (-45.0 45.0)
  end
  begin
     id 29
     name rfingers
     direction -1 -4.49128e-011 5.1228e-027   
     length 0.362105   
     axis -3.26879e-015 -90 -90   XYZ
    dof rx
    limits (0.0 90.0)
  end
  begin
     id 30
     name rthumb
     direction -0.707107 -6.34851e-011 0.707107   
     length 0.519912   
     axis -90 -45 -2.85299e-015   XYZ
    dof rx rz
    limits (-45.0 45.0)
           (-45.0 45.0)
  end
:hierarchy
  begin
    root lhipjoint rhipjoint lowerback
    lhipjoint lfemur
    lfemur ltibia
    ltibia lfoot
    lfoot ltoes
    rhipjoint rfemur
    rfemur rtibia
    rtibia rfoot
    rfoot rtoes
    lowerback upperback
    upperback thorax
    thorax lowerneck lclavicle rclavicle
    lowerneck upperneck
    upperneck head
    lclavicle lhumerus
    lhumerus lradius
    lradius lwrist
    lwrist lhand lthumb
    lhand lfingers
    rclavicle rhumerus
    rhumerus rradius
    rradius rwrist
    rwrist rhand rthumb
    rhand rfingers
  end

#!OML:ASF I:\Actors\actors\Patient Classification 2\Patient 1\Session 1\actor1.ASF
:FULLY-SPECIFIED
:DEGREES
17
root -0.656567 18.6582 5.80487 0.0466788 -2.79561 -4.36244
lowerback 1.36291 0.921909 1.95265
upperback -1.60195 1.29579 0.782826
thorax -2.38214 0.619636 -0.334724
lowerneck -10.641 -1.0393 -0.199635
upperneck 23.8205 -2.18638 3.08622
head 9.27218 -0.711452 0.85073
rclavicle -6.64686e-015 -1.51076e-014
rhumerus -48.2575 0.263093 -88.2375
rradius 40.6078
rwrist 17.2149
rhand -3.89751 -35.7665
rfingers 7.12502
rthumb 21.8524 -64.5527
lclavicle -6.64686e-015 -1.51076e-014
lhumerus -43.938 6.49515 86.9457
lradius 36.2381
lwrist -10.6505
lhand -11.3192 -27.1679
lfingers 7.12502
lthumb 14.7129 2.29005
rfemur 0 0 0
rtibia 0
rfoot 0 0
rtoes 0
lfemur -3.44489 -7.19184 -10.5856
ltibia 23.4063
lfoot -25.0552 13.8804
ltoes -54.4183
18
root -0.656568 18.6584 5.80407 0.0457243 -2.80407 -4.38381
lowerback 1.36764 0.92358 1.97704
upperback -1.59493 1.29868 0.785179
thorax -2.37707 0.620747 -0.346064
lowerneck -10.6381 -1.03775 -0.181553
upperneck 23.8075 -2.18224 3.06502
head 9.26656 -0.710374 0.840784
rclavicle 2.68359e-015 -7.95139e-015
rhumerus -48.2637 0.245615 -88.2275
rradius 40.6184
rwrist 17.2114
rhand -3.99015 -35.7553
rfingers 7.12502
rthumb 21.7634 -64.5518
lclavicle 2.68359e-015 -7.95139e-015
lhumerus -43.9417 6.50485 86.9148
lradius 36.2642
lwrist -10.669
lhand -11.3375 -27.2192
lfingers 7.12502
lthumb 14.6953 2.23998
rfemur 0 0 0
rtibia 0
rfoot 0 0
rtoes 0
lfemur -3.45133 -7.20811 -10.5629
ltibia 23.4236
lfoot -25.0963 13.8728
ltoes -54.3939
19
root -0.656821 18.6584 5.80362 0.034187 -2.81605 -4.40496
lowerback 1.36296 0.928269 2.00044
upperback -1.57934 1.30515 0.788196
thorax -2.35785 0.623847 -0.356033
lowerneck -10.6163 -1.03295 -0.170667
upperneck 23.7721 -2.17384 3.05519
head 9.24967 -0.707174 0.836418
rclavicle 1.20513e-015 -6.75868e-015
rhumerus -48.2613 0.216184 -88.2068
rradius 40.622
rwrist 17.2548
rhand -4.05331 -35.7231
rfingers 7.12502
rthumb 21.7028 -64.5265
lclavicle 1.20513e-015 -6.75868e-015
lhumerus -43.9251 6.50976 86.8774
lradius 36.2562
lwrist -10.7119
lhand -11.3727 -27.3257
lfingers 7.12502
lthumb 14.6615 2.13592
rfemur 0 0 0
rtibia 0
rfoot 0 0
rtoes 0
lfemur -3.44338 -7.19819 -10.5408
ltibia 23.4388
lfoot -25.0899 13.8879
ltoes -54.4495
20
root -0.657368 18.658 5.80344 0.0132834 -2.81709 -4.42252
lowerback 1.35731 0.935587 2.02133
upperback -1.56317 1.31489 0.784739
thorax -2.33731 0.628582 -0.371304
lowerneck -10.579 -1.03137 -0.163425
upperneck 23.7369 -2.17341 3.06319
head 9.23037 -0.706242 0.837978
rclavicle -4.88265e-015 -1.98785e-015
rhumerus -48.2714 0.166343 -88.1882
rradius 40.6125
rwrist 17.2978
rhand -4.06598 -35.6481
rfingers 7.12502
rthumb 21.6906 -64.453
lclavicle -4.88265e-015 -1.98785e-015
lhumerus -43.9242 6.45014 86.8657
lradius 36.267
lwrist -10.6973
lhand -11.4254 -27.3299
lfingers 7.12502
lthumb 14.6107 2.13546
rfemur 0 0 0
rtibia 0
rfoot 0 0
rtoes 0
lfemur -3.42612 -7.1741 -10.521
ltibia 23.4547
lfoot -25.0384 13.9032
ltoes -54.5628
21
root -0.657368 18.6579 5.80315 -0.00325848 -2.81603 -4.45069
lowerback 1.36729 0.941761 2.05825
upperback -1.56041 1.32425 0.784031
thorax -2.3391 0.632606 -0.393141
lowerneck -10.5701 -1.03825 -0.14939
upperneck 23.7544 -2.18041 3.0387
head 9.23448 -0.710749 0.826539
rclavicle 3.27622e-014 6.36111e-015
rhumerus -48.2994 0.117582 -88.174
rradius 40.5924
rwrist 17.35
rhand -4.07909 -35.5723
rfingers 7.12502
rthumb 21.678 -64.3786
lclavicle 3.27622e-014 6.36111e-015
lhumerus -43.8861 6.20281 86.9533
lradius 36.2087
lwrist -10.4461
lhand -11.4703 -27.2497
lfingers 7.12502
lthumb 14.5674 2.21881
rfemur 0 0 0
rtibia 0
rfoot 0 0
rtoes 0
lfemur -3.41597 -7.17997 -10.4937
ltibia 23.4739
lfoot -25.0158 13.9226
ltoes -54.6303
22
root -0.65727 18.658 5.8023 -0.0163475 -2.82235 -4.48994
lowerback 1.40091 0.941946 2.09661
upperback -1.56908 1.32677 0.792124
thorax -2.36625 0.632963 -0.407093
lowerneck -10.5555 -1.0436 -0.133816
upperneck 23.7762 -2.1855 3.01302
head 9.23899 -0.714392 0.814679
rclavicle 6.1499e-015 -2.78299e-015
rhumerus -48.3394 0.0869598 -88.166
rradius 40.5802
rwrist 17.428
rhand -4.14933 -35.504
rfingers 7.12502
rthumb 21.6106 -64.3181
lclavicle 6.1499e-015 -2.78299e-015
lhumerus -43.8549 6.02392 87.0095
lradius 36.129
lwrist -10.238
lhand -11.4487 -27.2494
lfingers 7.12502
lthumb 14.5883 2.21752
rfemur 0 0 0
rtibia 0
rfoot 0 0
rtoes 0
lfemur -3.41051 -7.17369 -10.4523
ltibia 23.4929
lfoot -25.0316 13.9197
ltoes -54.6236
23
root -0.6576 18.6582 5.80147 -0.0192541 -2.82433 -4.50512
lowerback 1.41019 0.944422 2.10602
upperback -1.56549 1.33058 0.795088
thorax -2.36757 0.634732 -0.409575
lowerneck -10.5518 -1.04114 -0.127269
upperneck 23.7623 -2.18271 3.01251
head 9.23329 -0.712753 0.813657
rclavicle 1.53934e-014 1.98785e-015
rhumerus -48.346 0.0597023 -88.159
rradius 40.5758
rwrist 17.4501
rhand -4.21556 -35.4928
rfingers 7.12502
rthumb 21.5469 -64.3142
lclavicle 1.53934e-014 1.98785e-015
lhumerus -43.8966 6.24842 86.874
lradius 36.1811
lwrist -10.493
lhand -11.3401 -27.3121
lfingers 7.12502
lthumb 14.6929 2.14729
rfemur 0 0 0
rtibia 0
rfoot 0 0
rtoes 0
lfemur -3.41414 -7.16894 -10.4343
ltibia 23.505
lfoot -25.0632 13.9027
ltoes -54.5683
24
root -0.657655 18.6581 5.80118 -0.00892147 -2.82362 -4.51734
lowerback 1.37819 0.950291 2.12005
upperback -1.54775 1.33751 0.797309
thorax -2.33092 0.638423 -0.41459
lowerneck -10.5634 -1.03211 -0.131792
upperneck 23.7122 -2.1679 3.01492
head 9.2178 -0.70642 0.816617
rclavicle -3.47873e-016 -1.47101e-014
rhumerus -48.316 0.0227263 -88.137
rradius 40.5565
rwrist 17.4387
rhand -4.26452 -35.3764
rfingers 7.12502
rthumb 21.4999 -64.2032
lclavicle -3.47873e-016 -1.47101e-014
lhumerus -43.9079 6.44625 86.7606
lradius 36.2452
lwrist -10.7231
lhand -11.2012 -27.3775
lfingers 7.12502
lthumb 14.8267 2.0721
rfemur 0 0 0
rtibia 0
rfoot 0 0
rtoes 0
lfemur -3.42822 -7.19871 -10.4206
ltibia 23.5086
lfoot -25.0992 13.9038
ltoes -54.5203
25
root -0.657567 18.658 5.8009 -0.00135524 -2.82441 -4.51132
lowerback 1.34966 0.948801 2.11083
upperback -1.53521 1.33421 0.797289
thorax -2.30223 0.637279 -0.408682
lowerneck -10.5583 -1.02293 -0.145531
upperneck 23.671 -2.1532 3.02535
head 9.2024 -0.700195 0.823979
rclavicle 6.54747e-015 -3.97569e-016
rhumerus -48.2921 0.0033679 -88.1207
rradius 40.5243
rwrist 17.4509
rhand -4.37465 -34.9806
rfingers 7.12502
rthumb 21.3942 -63.8194
lclavicle 6.54747e-015 -3.97569e-016
lhumerus -43.8898 6.44853 86.7409
lradius 36.2616
lwrist -10.7018
lhand -11.1101 -27.4411
lfingers 7.12502
lthumb 14.9145 2.00198
rfemur 0 0 0
rtibia 0
rfoot 0 0
rtoes 0
lfemur -3.43603 -7.21929 -10.4276
ltibia 23.504
lfoot -25.0849 13.9335
ltoes -54.6073
26
root -0.657555 18.6583 5.80065 -0.00407043 -2.81986 -4.46932
lowerback 1.34456 0.939377 2.05976
upperback -1.53404 1.32017 0.794914
thorax -2.29949 0.631157 -0.382005
lowerneck -10.5495 -1.01852 -0.19565
upperneck 23.6841 -2.1466 3.06407
head 9.20611 -0.697367 0.84658
rclavicle -8.60986e-015 3.57812e-015
rhumerus -48.302 0.0301676 -88.1241
rradius 40.5154
rwrist 17.4309
rhand -4.41408 -34.8639
rfingers 7.12502
rthumb 21.3563 -63.707
lclavicle -8.60986e-015 3.57812e-015
lhumerus -43.9139 6.49327 86.7159
lradius 36.3003
lwrist -10.6919
lhand -11.1099 -27.404
lfingers 7.12502
lthumb 14.9147 2.03907
rfemur 0 0 0
rtibia 0
rfoot 0 0
rtoes 0
lfemur -3.43304 -7.21902 -10.476
ltibia 23.495
lfoot -25.0281 13.9725
ltoes -54.7269
27
root -0.657772 18.6585 5.80031 -0.00683639 -2.8128 -4.45734
lowerback 1.34093 0.930811 2.04129
upperback -1.53416 1.30827 0.798274
thorax -2.2983 0.62557 -0.367784
lowerneck -10.5574 -1.01619 -0.234159
upperneck 23.7153 -2.14326 3.0913
head 9.21908 -0.695878 0.862944
rclavicle -8.57259e-015 -2.38542e-015
rhumerus -48.3314 0.0675024 -88.1426
rradius 40.5398
rwrist 17.3947
rhand -4.29164 -35.2193
rfingers 7.12502
rthumb 21.4739 -64.049
lclavicle -8.57259e-015 -2.38542e-015
lhumerus -43.9314 6.56777 86.6777
lradius 36.3194
lwrist -10.7238
lhand -11.1138 -27.3024
lfingers 7.12502
lthumb 14.9109 2.1409
rfemur 0 0 0
rtibia 0
rfoot 0 0
rtoes 0
lfemur -3.42952 -7.22816 -10.4903
ltibia 23.4849
lfoot -25.0206 13.9834
ltoes -54.7011
28
root -0.658194 18.6586 5.79966 -0.00488209 -2.80741 -4.47977
lowerback 1.32986 0.934086 2.06251
upperback -1.53334 1.31295 0.804699
thorax -2.29084 0.627677 -0.373003
lowerneck -10.5499 -1.01734 -0.22355
upperneck 23.6975 -2.14006 3.06582
head 9.211 -0.696425 0.852702
rclavicle -1.03989e-014 -1.98785e-015
rhumerus -48.3462 0.0646968 -88.1446
rradius 40.5492
rwrist 17.3926
rhand -4.14337 -35.5272
rfingers 7.12502
rthumb 21.6163 -64.3406
lclavicle -1.03989e-014 -1.98785e-015
lhumerus -43.903 6.40608 86.7493
lradius 36.287
lwrist -10.5668
lhand -11.1313 -27.2238
lfingers 7.12502
lthumb 14.894 2.22077
rfemur 0 0 0
rtibia 0
rfoot 0 0
rtoes 0
lfemur -3.42873 -7.22749 -10.4612
ltibia 23.4738
lfoot -25.0677 13.9478
ltoes -54.5856
29
root -0.658188 18.6584 5.79907 -0.0141199 -2.80088 -4.47915
lowerback 1.33757 0.942816 2.06434
upperback -1.5387 1.32494 0.803454
thorax -2.30036 0.633504 -0.375882
lowerneck -10.5014 -1.01893 -0.221515
upperneck 23.6505 -2.14217 3.07245
head 9.18552 -0.69752 0.854376
rclavicle -1.60146e-014 -1.55052e-014
rhumerus -48.3642 0.0375704 -88.1308
rradius 40.5412
rwrist 17.4022
rhand -4.067 -35.5949
rfingers 7.12502
rthumb 21.6896 -64.3999
lclavicle -1.60146e-014 -1.55052e-014
lhumerus -43.8972 6.23991 86.8259
lradius 36.2619
lwrist -10.4381
lhand -11.1951 -27.1901
lfingers 7.12502
lthumb 14.8325 2.25905
rfemur 0 0 0
rtibia 0
rfoot 0 0
rtoes 0
lfemur -3.41933 -7.21229 -10.4574
ltibia 23.4661
lfoot -25.1251 13.8977
ltoes -54.4759
30
root -0.657771 18.658 5.79835 -0.0276024 -2.79133 -4.44813
lowerback 1.35524 0.941412 2.03897
upperback -1.53734 1.32273 0.79377
thorax -2.30926 0.632671 -0.371863
lowerneck -10.5099 -1.01653 -0.225557
upperneck 23.6613 -2.14321 3.09217
head 9.19122 -0.69603 0.861727
rclavicle 2.28975e-014 -1.59028e-014
rhumerus -48.3705 0.0390763 -88.137
rradius 40.5353
rwrist 17.4422
rhand -4.09631 -35.5246
rfingers 7.12502
rthumb 21.6615 -64.3328
lclavicle 2.28975e-014 -1.59028e-014
lhumerus -43.9347 6.42858 86.7288
lradius 36.2984
lwrist -10.644
lhand -11.1841 -27.2344
lfingers 7.12502
lthumb 14.8432 2.21393
rfemur 0 0 0
rtibia 0
rfoot 0 0
rtoes 0
lfemur -3.41486 -7.22361 -10.4932
ltibia 23.4654
lfoot -25.1313 13.897
ltoes -54.4412
31
root -0.657055 18.6578 5.79748 -0.0333759 -2.78055 -4.43305
lowerback 1.3515 0.932867 2.0356
upperback -1.52521 1.31085 0.791145
thorax -2.29493 0.626972 -0.372101
lowerneck -10.5575 -1.01204 -0.200026
upperneck 23.6975 -2.13332 3.04919
head 9.21185 -0.692832 0.843727
rclavicle -1.84621e-014 -3.97569e-015
rhumerus -48.3619 0.0613828 -88.1446
rradius 40.5372
rwrist 17.5048
rhand -4.15048 -35.4204
rfingers 7.12502
rthumb 21.6095 -64.2346
lclavicle -1.84621e-014 -3.97569e-015
lhumerus -43.9561 6.53445 86.6736
lradius 36.3426
lwrist -10.7535
lhand -11.1474 -27.2949
lfingers 7.12502
lthumb 14.8785 2.15085
rfemur 0 0 0
rtibia 0
rfoot 0 0
rtoes 0
lfemur -3.41461 -7.23501 -10.5129
ltibia 23.4657
lfoot -25.0724 13.9092
ltoes -54.4817
32
root -0.656481 18.6575 5.79681 -0.0467109 -2.77494 -4.45871
lowerback 1.35516 0.92743 2.07059
upperback -1.52811 1.30478 0.799337
thorax -2.29957 0.623361 -0.38317
lowerneck -10.5181 -1.00934 -0.195517
upperneck 23.6837 -2.12998 3.0504
head 9.19953 -0.691311 0.843834
rclavicle -1.40267e-014 -6.36111e-015
rhumerus -48.3911 0.0880114 -88.1539
rradius 40.5576
rwrist 17.5097
rhand -4.16268 -35.3661
rfingers 7.12502
rthumb 21.5977 -64.1817
lclavicle -1.40267e-014 -6.36111e-015
lhumerus -43.9988 6.49381 86.6862
lradius 36.371
lwrist -10.7242
lhand -11.15 -27.3122
lfingers 7.12502
lthumb 14.876 2.13371
rfemur 0 0 0
rtibia 0
rfoot 0 0
rtoes 0
lfemur -3.39851 -7.22981 -10.4852
ltibia 23.4665
lfoot -25.0212 13.9035
ltoes -54.5299
